<?xml version="1.0" encoding="utf-8"?>
<!-- Generator: Adobe Illustrator 16.0.0, SVG Export Plug-In . SVG Version: 6.00 Build 0)  -->
<!DOCTYPE svg PUBLIC "-//W3C//DTD SVG 1.1//EN" "http://www.w3.org/Graphics/SVG/1.1/DTD/svg11.dtd">
<svg version="1.1" id="Layer_1" xmlns="http://www.w3.org/2000/svg" xmlns:xlink="http://www.w3.org/1999/xlink" x="0px" y="0px"
	 width="172.003px" height="86.789px" viewBox="0 0 172.003 86.789" enable-background="new 0 0 172.003 86.789"
	 xml:space="preserve">
<g>
	<path fill="#FFFFFF" d="M41.374,59.254c0,2.241-0.349,4.192-1.046,5.86c-0.696,1.668-1.686,3.051-2.971,4.146
		c-1.279,1.097-2.843,1.917-4.685,2.464c-1.841,0.549-3.906,0.823-6.197,0.823c-1.047,0-2.268-0.046-3.659-0.13
		c-1.397-0.09-2.765-0.268-4.111-0.543V46.67c1.346-0.25,2.746-0.417,4.203-0.505c1.457-0.086,2.71-0.13,3.752-0.13
		c2.216,0,4.226,0.249,6.028,0.747c1.807,0.496,3.357,1.279,4.652,2.354c1.293,1.07,2.29,2.438,2.986,4.105
		C41.026,54.908,41.374,56.914,41.374,59.254z M24.533,67.467c0.272,0.026,0.591,0.045,0.954,0.058
		c0.358,0.012,0.789,0.018,1.286,0.018c2.917,0,5.076-0.733,6.479-2.203c1.407-1.469,2.11-3.496,2.11-6.084
		c0-2.713-0.672-4.77-2.018-6.163C31.999,51.699,29.872,51,26.958,51c-0.396,0-0.807,0.008-1.233,0.021
		c-0.42,0.013-0.819,0.044-1.192,0.095V67.467z"/>
	<path fill="#FFFFFF" d="M67.14,50.814c-2.712,0-4.673,0.752-5.879,2.26c-1.209,1.504-1.813,3.565-1.813,6.181
		c0,1.267,0.151,2.42,0.45,3.452c0.297,1.033,0.748,1.923,1.345,2.672c0.595,0.746,1.342,1.322,2.239,1.734
		c0.895,0.412,1.941,0.616,3.139,0.616c0.644,0,1.196-0.012,1.658-0.038c0.46-0.023,0.866-0.074,1.214-0.148v-9h5.826v12.812
		c-0.697,0.272-1.819,0.566-3.363,0.876c-1.542,0.311-3.445,0.467-5.714,0.467c-1.941,0-3.701-0.297-5.28-0.896
		c-1.582-0.6-2.932-1.469-4.053-2.615c-1.121-1.145-1.985-2.551-2.596-4.219c-0.61-1.667-0.915-3.571-0.915-5.711
		c0-2.167,0.336-4.083,1.008-5.751c0.672-1.667,1.593-3.081,2.764-4.237c1.169-1.16,2.544-2.037,4.126-2.634
		c1.579-0.597,3.267-0.896,5.06-0.896c1.22,0,2.319,0.081,3.304,0.242c0.982,0.162,1.83,0.35,2.539,0.561s1.294,0.428,1.757,0.652
		c0.457,0.225,0.788,0.399,0.988,0.524l-1.68,4.667c-0.796-0.422-1.712-0.792-2.746-1.102C69.488,50.969,68.36,50.814,67.14,50.814z
		"/>
	<path fill="#FFFFFF" d="M79.029,46.332h5.824v25.877h-5.824V46.332z"/>
	<path fill="#FFFFFF" d="M109.691,46.332v4.968h-7.806v20.909H96.06V51.299h-7.802v-4.968H109.691z"/>
	<path fill="#FFFFFF" d="M126.531,72.208c-0.289-0.898-0.6-1.821-0.931-2.77c-0.332-0.947-0.659-1.893-0.989-2.832h-10.107
		c-0.324,0.944-0.654,1.891-0.98,2.84c-0.332,0.946-0.635,1.869-0.918,2.76h-6.051c0.975-2.786,1.896-5.362,2.771-7.729
		c0.873-2.363,1.731-4.593,2.564-6.684c0.838-2.092,1.661-4.075,2.475-5.956c0.813-1.878,1.654-3.714,2.528-5.509h5.521
		c0.852,1.795,1.688,3.629,2.515,5.509c0.824,1.881,1.657,3.864,2.494,5.956c0.838,2.091,1.694,4.32,2.571,6.684
		c0.873,2.366,1.8,4.941,2.779,7.729h-6.242V72.208z M119.531,52.195c-0.129,0.377-0.32,0.889-0.569,1.535
		c-0.251,0.646-0.535,1.393-0.854,2.24c-0.322,0.848-0.681,1.783-1.072,2.801c-0.396,1.021-0.797,2.088-1.205,3.207h7.397
		c-0.396-1.123-0.778-2.193-1.147-3.216c-0.371-1.024-0.726-1.959-1.057-2.806c-0.337-0.85-0.629-1.594-0.882-2.243
		C119.888,53.07,119.684,52.564,119.531,52.195z"/>
	<path fill="#FFFFFF" d="M153.298,67.207v5.002h-17.291V46.332h5.826v20.875H153.298L153.298,67.207z"/>
	<path fill="#FFFFFF" d="M44.588,46.511v25.697h6.107V46.292c-1.18,0.255-2.389,0.398-3.621,0.398
		C46.233,46.691,45.404,46.629,44.588,46.511z"/>
	<path fill="#FFFFFF" d="M58.288,18.866c-3.054-3.177-7.134-4.774-11.22-4.774c-3.882,0-7.768,1.443-10.786,4.346
		c-6.194,5.958-6.387,15.813-0.427,22.006c2.569,2.67,5.862,4.21,9.272,4.638c0.647,0.081,1.296,0.137,1.947,0.137
		c0.65,0,1.299-0.056,1.945-0.137c3.212-0.403,6.329-1.792,8.841-4.208C64.054,34.914,64.246,25.058,58.288,18.866z M55.161,38.067
		c-4.638,4.461-12.041,4.316-16.502-0.319c-4.464-4.64-4.318-12.044,0.321-16.506c4.64-4.461,12.043-4.318,16.504,0.322
		C59.946,26.202,59.801,33.604,55.161,38.067z"/>
	<g>
		<g>
			<defs>
				<path id="SVGID_1_" d="M55.13,38.032c-4.62,4.443-11.994,4.301-16.437-0.318c-4.444-4.621-4.301-11.994,0.32-16.438
					c4.62-4.442,11.993-4.301,16.438,0.32C59.894,26.215,59.75,33.587,55.13,38.032z"/>
			</defs>
			<clipPath id="SVGID_2_">
				<use xlink:href="#SVGID_1_"  overflow="visible"/>
			</clipPath>
			<g clip-path="url(#SVGID_2_)">
				<text transform="matrix(1 0 0 1 31.5088 22.9131)" fill="#FFFFFF" font-family="'CourierNewPSMT'" font-size="7.7286">1 0 1 0 1</text>
				<text transform="matrix(1 0 0 1 31.5088 29.499)" fill="#FFFFFF" font-family="'CourierNewPSMT'" font-size="7.7286">1 0 0 1 0</text>
				<text transform="matrix(1 0 0 1 31.5088 36.085)" fill="#FFFFFF" font-family="'CourierNewPSMT'" font-size="7.7286">0 1 1 0 0</text>
				<text transform="matrix(1 0 0 1 31.5088 42.6699)" fill="#FFFFFF" font-family="'CourierNewPSMT'" font-size="7.7286">1 1 0 0 1</text>
			</g>
		</g>
	</g>
	<path fill="#FFFFFF" d="M18.706,38.215v-15.81h10.585v2.987h-7.026v3.309h6.25v2.988h-6.25v6.524L18.706,38.215L18.706,38.215z"/>
	<path fill="#FFFFFF" d="M68.989,22.222c2.373,0,4.19,0.422,5.453,1.267c1.261,0.844,1.894,2.155,1.894,3.936
		c0,1.11-0.255,2.012-0.765,2.703c-0.509,0.693-1.244,1.236-2.201,1.632c0.32,0.396,0.654,0.849,1.004,1.356
		c0.349,0.511,0.695,1.042,1.038,1.597c0.341,0.556,0.673,1.135,0.994,1.735c0.319,0.6,0.615,1.188,0.89,1.767h-3.981
		c-0.29-0.517-0.585-1.042-0.882-1.574c-0.297-0.531-0.603-1.05-0.916-1.551c-0.313-0.503-0.623-0.978-0.928-1.426
		c-0.306-0.448-0.61-0.855-0.916-1.221h-1.757v5.771h-3.559V22.633c0.775-0.15,1.578-0.258,2.407-0.319
		C67.593,22.253,68.334,22.222,68.989,22.222z M69.194,25.257c-0.259,0-0.491,0.007-0.695,0.023c-0.205,0.016-0.4,0.029-0.582,0.046
		v4.289h1.004c1.339,0,2.296-0.167,2.876-0.502c0.576-0.334,0.865-0.904,0.865-1.711c0-0.775-0.293-1.326-0.877-1.653
		C71.198,25.421,70.334,25.257,69.194,25.257z"/>
	<path fill="#FFFFFF" d="M89.945,37.65c0.281-0.085,0.522-0.169,0.717-0.251l-0.502-3.026c-0.453,0.167-1.002,0.313-1.635,0.433
		c-0.791,0.15-1.609,0.228-2.431,0.228c-1.312,0-2.379-0.285-3.172-0.85c-0.813-0.579-1.279-1.371-1.384-2.354l-0.033-0.306h10.035
		c0.013-0.168,0.025-0.354,0.039-0.553c0.019-0.3,0.029-0.573,0.029-0.825c0-2.532-0.621-4.471-1.845-5.761
		c-1.22-1.285-2.912-1.937-5.028-1.937c-0.905,0-1.799,0.172-2.659,0.511c-0.858,0.341-1.626,0.846-2.283,1.503
		c-0.662,0.661-1.204,1.501-1.61,2.495c-0.408,0.994-0.613,2.175-0.613,3.512c0,1.11,0.158,2.154,0.472,3.104
		c0.311,0.941,0.798,1.767,1.445,2.452c0.649,0.687,1.48,1.235,2.471,1.632c0.998,0.398,2.19,0.601,3.545,0.601
		c0.544,0,1.092-0.029,1.626-0.086c0.539-0.058,1.053-0.132,1.529-0.22C89.121,37.869,89.552,37.766,89.945,37.65z M81.54,28.746
		c0.062-0.393,0.161-0.781,0.294-1.156c0.137-0.396,0.338-0.75,0.599-1.05c0.261-0.306,0.591-0.553,0.977-0.734
		c0.387-0.184,0.854-0.277,1.387-0.277c0.552,0,1.027,0.1,1.411,0.295c0.379,0.196,0.695,0.45,0.943,0.751
		c0.25,0.306,0.435,0.654,0.553,1.04c0.113,0.371,0.181,0.761,0.203,1.157l0.016,0.293H81.49L81.54,28.746z"/>
	<path fill="#FFFFFF" d="M100.117,25.82c1.121,0,1.903,0.34,2.328,1.012c0.407,0.642,0.604,1.674,0.604,3.157v7.951h3.841v-8.482
		c0-1.033-0.107-1.982-0.316-2.823c-0.205-0.82-0.554-1.539-1.039-2.134c-0.478-0.589-1.139-1.051-1.965-1.376
		c-0.836-0.33-1.91-0.497-3.188-0.497s-2.514,0.094-3.672,0.277c-1.061,0.167-1.953,0.35-2.656,0.541v14.495h3.841V26.001
		l0.238-0.034c0.278-0.04,0.599-0.074,0.959-0.104C99.455,25.833,99.796,25.82,100.117,25.82z"/>
	<path fill="#FFFFFF" d="M120.179,33.926c0-0.611-0.068-1.155-0.208-1.61c-0.132-0.442-0.366-0.854-0.7-1.222
		c-0.338-0.374-0.811-0.729-1.406-1.056c-0.604-0.333-1.388-0.681-2.33-1.03c-0.469-0.177-0.865-0.344-1.178-0.497
		c-0.32-0.155-0.568-0.298-0.756-0.435c-0.218-0.158-0.363-0.324-0.443-0.508c-0.073-0.174-0.109-0.367-0.109-0.577
		c0-0.647,0.402-1.417,2.32-1.417c0.758,0,1.453,0.07,2.065,0.211c0.494,0.114,0.959,0.241,1.388,0.378l0.641-2.854
		c-0.467-0.159-1.063-0.31-1.777-0.445c-0.835-0.162-1.723-0.244-2.636-0.244c-1.798,0-3.226,0.403-4.243,1.197
		c-1.011,0.792-1.501,1.839-1.501,3.202c0,0.702,0.103,1.307,0.3,1.796c0.199,0.488,0.483,0.914,0.842,1.266
		c0.369,0.358,0.822,0.671,1.349,0.929c0.543,0.268,1.159,0.529,1.829,0.778c0.904,0.342,1.56,0.641,2.007,0.915
		c0.515,0.315,0.774,0.706,0.774,1.157c0,0.699-0.355,1.015-0.654,1.155c-0.372,0.176-0.965,0.261-1.813,0.261
		c-0.781,0-1.578-0.085-2.369-0.255c-0.682-0.145-1.357-0.34-2.017-0.582l-0.618,2.992c0.359,0.136,0.907,0.298,1.637,0.487
		c0.881,0.227,2.004,0.341,3.336,0.341c2.019,0,3.593-0.376,4.681-1.119C119.66,36.41,120.179,35.36,120.179,33.926z"/>
	<path fill="#FFFFFF" d="M122.945,22.407h3.56v15.81h-3.56V22.407z"/>
	<path fill="#FFFFFF" d="M141.88,28.533c0-0.939-0.105-1.8-0.316-2.559c-0.203-0.742-0.554-1.38-1.041-1.894
		c-0.49-0.519-1.154-0.921-1.973-1.201c-0.835-0.285-1.9-0.429-3.164-0.429c-0.503,0-1.006,0.024-1.496,0.074
		c-0.497,0.048-0.972,0.105-1.42,0.174c-0.439,0.066-0.855,0.146-1.234,0.232c-0.271,0.063-0.508,0.122-0.713,0.18l0.473,2.982
		c0.479-0.151,1.027-0.273,1.632-0.364c0.737-0.108,1.497-0.165,2.257-0.165c1.195,0,2.057,0.256,2.561,0.762
		c0.504,0.504,0.762,1.177,0.762,1.999v0.776l-0.35-0.099c-0.265-0.073-0.613-0.135-1.037-0.183
		c-0.437-0.049-0.938-0.073-1.492-0.073c-0.823,0-1.629,0.083-2.397,0.246c-0.753,0.16-1.431,0.422-2.012,0.778
		c-0.567,0.349-1.028,0.822-1.37,1.411c-0.338,0.584-0.51,1.313-0.51,2.167c0,0.9,0.15,1.666,0.445,2.275
		c0.293,0.604,0.719,1.1,1.269,1.474c0.555,0.383,1.231,0.661,2.016,0.831c0.793,0.172,1.693,0.261,2.675,0.261
		c1.571,0,2.93-0.094,4.037-0.277c1.018-0.171,1.807-0.315,2.399-0.44L141.88,28.533L141.88,28.533z M138.205,35.182l-0.23,0.038
		c-0.247,0.042-0.576,0.073-0.979,0.092c-0.396,0.021-0.817,0.03-1.256,0.03c-0.854,0-1.541-0.146-2.043-0.437
		c-0.554-0.317-0.834-0.88-0.834-1.673c0-0.405,0.094-0.756,0.281-1.04c0.186-0.276,0.439-0.497,0.76-0.656
		c0.303-0.151,0.654-0.255,1.045-0.309c0.646-0.087,1.295-0.114,2.211-0.016c0.369,0.042,0.645,0.083,0.83,0.124l0.217,0.048v3.798
		H138.205z"/>
</g>
</svg>
