<?xml version="1.0" encoding="utf-8"?>
<!-- Generator: Adobe Illustrator 16.0.0, SVG Export Plug-In . SVG Version: 6.00 Build 0)  -->
<!DOCTYPE svg PUBLIC "-//W3C//DTD SVG 1.1//EN" "http://www.w3.org/Graphics/SVG/1.1/DTD/svg11.dtd">
<svg version="1.1" id="Layer_1" xmlns="http://www.w3.org/2000/svg" xmlns:xlink="http://www.w3.org/1999/xlink" x="0px" y="0px"
	 width="80px" height="80px" viewBox="0 0 80 80" enable-background="new 0 0 80 80" xml:space="preserve">
<g>
	<g>
		<g>
			<path fill="#103666" d="M48.1,60.381c0.651-0.826,1.51-1.451,2.48-1.822c-1.189-2.037-1.846-4.379-1.875-6.763
				c-0.004-0.29,0.006-0.579,0.02-0.866l-3.543-1.414l-3.14-2.643c-0.828-0.701-2.053-0.648-2.822,0.115l-4.364,4.34l-4.376-4.342
				c-0.769-0.764-1.992-0.813-2.82-0.113l-3.139,2.643l-13.405,5.349C6.801,56.582,6.805,71.863,6.433,73.27h36.744
				c-0.538-0.772-0.886-1.674-1.001-2.639c-0.181-1.537,0.247-3.052,1.205-4.268L48.1,60.381z"/>
			<path fill="#103666" d="M62.357,65.305L62.357,65.305c-1.344,0-2.688-0.201-3.972-0.59c-0.135,1.031-0.543,2.014-1.194,2.837
				l-4.508,5.716h10.588c-0.17-0.637-0.262-4.156-0.721-7.965C62.489,65.303,62.423,65.305,62.357,65.305z"/>
			<path fill="#103666" d="M25.502,20.113c2.479,1.177,5.801,1.827,9.351,1.827c3.551,0,6.874-0.65,9.353-1.827
				c1.53-0.729,2.604-1.603,3.117-2.51c-0.017-0.005-0.031-0.011-0.048-0.018C45.773-0.659,36.658,9.613,34.853,9.613
				c-1.804,0-10.918-10.272-12.422,7.972c-0.014,0.007-0.03,0.012-0.045,0.018C22.895,18.51,23.971,19.384,25.502,20.113z"/>
			<path fill="#103666" d="M21.491,28.635c0.588,10.827,6.228,17.202,13.36,17.202c7.131,0,12.768-6.375,13.358-17.201
				c3.46-1.365,5.604-3.259,5.604-5.352c0-1.859-1.689-3.562-4.496-4.877c-0.691,1.399-2.125,2.651-4.194,3.635
				c-2.761,1.312-6.408,2.034-10.268,2.034s-7.508-0.722-10.267-2.034c-2.072-0.984-3.502-2.236-4.196-3.635
				c-2.805,1.315-4.495,3.018-4.495,4.877C15.895,25.375,18.035,27.269,21.491,28.635z"/>
			<path fill="#103666" d="M69.309,42.852c-4.847-3.823-11.898-2.99-15.722,1.857c-3.294,4.175-3.132,9.988,0.075,13.964
				l-1.604,2.032c-0.767,0.141-1.488,0.548-2.009,1.208l-4.719,5.983c-1.134,1.438-0.89,3.521,0.551,4.658
				c1.438,1.135,3.524,0.887,4.658-0.551l4.719-5.982c0.521-0.66,0.75-1.457,0.707-2.236l1.603-2.031
				c4.615,2.191,10.305,0.997,13.599-3.179C74.989,53.727,74.156,46.674,69.309,42.852z M68.563,56.521
				c-2.689,3.41-7.654,3.996-11.063,1.306c-3.411-2.69-3.999-7.654-1.308-11.063c2.688-3.412,7.652-3.998,11.063-1.308
				S71.252,53.109,68.563,56.521z"/>
		</g>
	</g>
</g>
</svg>
