<?xml version="1.0" encoding="utf-8"?>
<!-- Generator: Adobe Illustrator 16.0.0, SVG Export Plug-In . SVG Version: 6.00 Build 0)  -->
<!DOCTYPE svg PUBLIC "-//W3C//DTD SVG 1.1//EN" "http://www.w3.org/Graphics/SVG/1.1/DTD/svg11.dtd">
<svg version="1.1" id="Layer_1" xmlns="http://www.w3.org/2000/svg" xmlns:xlink="http://www.w3.org/1999/xlink" x="0px" y="0px"
	 width="80px" height="80px" viewBox="0 0 80 80" enable-background="new 0 0 80 80" xml:space="preserve">
<g>
	<path fill="#103666" d="M49.652,30.215c-6.23,3.824-8.188,12.002-4.364,18.23c3.292,5.367,9.817,7.562,15.547,5.623l1.603,2.613
		c-0.158,0.908,0,1.879,0.521,2.729L67.68,67.1c1.133,1.849,3.555,2.428,5.403,1.293s2.425-3.554,1.291-5.403l-4.72-7.689
		c-0.521-0.849-1.313-1.428-2.196-1.698l-1.603-2.609c4.321-4.229,5.318-11.042,2.025-16.408
		C64.063,28.35,55.881,26.391,49.652,30.215z M64.534,36.636c2.692,4.384,1.312,10.138-3.069,12.829
		c-4.386,2.689-10.141,1.311-12.831-3.072c-2.688-4.385-1.311-10.141,3.07-12.83C56.09,30.873,61.844,32.25,64.534,36.636z"/>
	<path fill="#103666" d="M40.094,59.117v4.451h11.332l2.131,2.129v2.134H22.336v-2.134l2.131-2.129H35.83v-4.451H12.983
		c-2.872-0.002-5.225-2.356-5.225-5.227V20.62c0-2.871,2.352-5.224,5.225-5.224h49.958c2.875,0,5.226,2.35,5.226,5.224v10.663
		c-0.658-0.727-1.354-1.41-2.132-2V20.62c0-1.705-1.387-3.092-3.094-3.092H12.983c-1.706,0-3.091,1.387-3.091,3.092v33.295
		c0,1.707,1.385,3.095,3.091,3.095h46.192l1.173,2.109H40.094V59.117z"/>
	<rect x="14.013" y="21.815" fill="#103666" width="45.568" height="3.038"/>
	<polygon fill="#103666" points="43.703,28.995 14.013,28.995 14.013,32.036 43.7,32.036 43.7,28.995 	"/>
	<polygon fill="#103666" points="40.243,36.178 14.013,36.178 14.013,39.218 40.243,39.218 	"/>
	<rect x="14.013" y="43.361" fill="#103666" width="26.23" height="3.039"/>
	<rect x="14.013" y="50.139" fill="#103666" width="29.102" height="3.041"/>
</g>
</svg>
