<?xml version="1.0" encoding="utf-8"?>
<!-- Generator: Adobe Illustrator 16.0.0, SVG Export Plug-In . SVG Version: 6.00 Build 0)  -->
<!DOCTYPE svg PUBLIC "-//W3C//DTD SVG 1.1//EN" "http://www.w3.org/Graphics/SVG/1.1/DTD/svg11.dtd">
<svg version="1.1" id="Layer_1" xmlns="http://www.w3.org/2000/svg" xmlns:xlink="http://www.w3.org/1999/xlink" x="0px" y="0px"
	 width="80px" height="80px" viewBox="0 0 80 80" enable-background="new 0 0 80 80" xml:space="preserve">
<g>
	<path fill="#103666" d="M40.001,4.232c-17.255,0-31.243,13.987-31.243,31.243c0,11.802,6.546,22.063,16.198,27.382l-0.366,12.91
		l14.737-9.084c0.225,0.002,0.45,0.031,0.674,0.031c17.256,0,31.241-13.984,31.241-31.241C71.242,18.219,57.257,4.232,40.001,4.232z
		 M38.601,54.268c-2.792,0-4.691-2.059-4.691-4.797c0-2.798,1.946-4.798,4.691-4.798c2.849,0,4.69,2,4.745,4.798
		C43.344,52.205,41.449,54.268,38.601,54.268z M44.975,34.657c-1.949,2.163-2.738,4.216-2.686,6.594v0.942h-7.01l-0.053-1.366
		c-0.158-2.686,0.738-5.434,3.115-8.274c1.678-2.01,3.058-3.693,3.058-5.484c0-1.841-1.219-3.051-3.854-3.155
		c-1.734,0-3.847,0.626-5.208,1.578l-1.793-5.75c1.896-1.104,5.052-2.152,8.794-2.152c6.962,0,10.117,3.845,10.117,8.22
		C49.455,29.809,46.98,32.445,44.975,34.657z"/>
</g>
</svg>
